<svg width="21" height="24" viewBox="0 0 21 24" fill="none" xmlns="http://www.w3.org/2000/svg">
<path d="M2.54888 7.14494V20.9929C2.54888 21.8114 2.8426 22.5798 3.35631 23.1316C3.86721 23.6846 4.57852 23.9986 5.32316 23.9999H15.738C16.4827 23.9986 17.194 23.6846 17.7049 23.1316C18.2186 22.5798 18.5125 21.8114 18.5125 20.9929V7.1456C18.8705 7.0435 19.1976 6.85074 19.4636 6.58529C20.0588 5.96901 20.2342 5.04819 19.9089 4.2488C19.5836 3.4494 18.8209 2.92686 17.973 2.92269H15.1546V2.22012C15.1579 1.62929 14.9291 1.06197 14.5192 0.644594C14.1096 0.227441 13.5533 -0.0048479 12.9747 -1.77028e-05H8.08648C7.50784 -0.0048479 6.95157 0.227441 6.54194 0.644594C6.1321 1.06197 5.90331 1.62929 5.90675 2.22012V2.92269H3.08817C1.93132 2.93498 0.996594 3.89005 0.985413 5.07125C0.991003 6.04278 1.6305 6.89113 2.54888 7.14494ZM15.738 22.8758H5.32316C4.38177 22.8758 3.64982 22.0503 3.64982 20.9929V7.19434H17.4116V20.9929C17.4116 22.0503 16.6794 22.8758 15.738 22.8758ZM7.00769 2.22012C7.00403 1.92745 7.11671 1.64576 7.31991 1.43916C7.52332 1.23256 7.79985 1.11905 8.08648 1.1241H12.9747C13.2613 1.11905 13.5379 1.23256 13.7413 1.43916C13.9445 1.64554 14.0571 1.92745 14.0537 2.22012V2.92269H7.00769V2.22012ZM2.38718 4.35199C2.57189 4.15922 2.82411 4.04944 3.08817 4.04681H17.973C18.5215 4.05142 18.9639 4.50699 18.9639 5.06708C18.9636 5.33449 18.8589 5.59071 18.6729 5.77909C18.4867 5.96747 18.2349 6.0722 17.973 6.07022H3.08817C2.542 6.07154 2.09839 5.62035 2.09732 5.0629C2.09689 4.79571 2.20118 4.53971 2.38718 4.35199Z" fill="#083863"/>
</svg>
